<svg width="11" height="18" viewBox="0 0 11 18" fill="none" xmlns="http://www.w3.org/2000/svg">
<g clip-path="url(#clip0_293_499)">
<path d="M8.59885 8.71611C8.51864 8.65701 8.45533 8.62324 8.40889 8.57681C5.98173 6.1623 3.55878 3.74358 1.13583 1.3333C0.912111 1.10958 0.785476 0.864748 0.895226 0.548161C1.03875 0.117603 1.57061 -0.0385802 1.92941 0.244237C1.98851 0.29067 2.03916 0.341324 2.08981 0.391978C4.68583 2.97955 7.27762 5.5629 9.87364 8.15047C10.2789 8.5557 10.2789 8.90184 9.86942 9.31129C7.2734 11.8989 4.67317 14.4907 2.07715 17.0824C1.87031 17.2893 1.64237 17.4159 1.33845 17.3315C0.891005 17.2006 0.709495 16.6814 0.979649 16.3015C1.0303 16.2298 1.09784 16.1665 1.16116 16.1031C3.57144 13.6971 5.98173 11.2952 8.39623 8.89339C8.44266 8.84274 8.49754 8.80053 8.59885 8.71611Z" fill="white"/>
</g>
<defs>
<clipPath id="clip0_293_499">
<rect width="9.32455" height="17.2561" fill="white" transform="translate(0.853027 0.100586)"/>
</clipPath>
</defs>
</svg>
