<svg width="10" height="18" viewBox="0 0 10 18" fill="none" xmlns="http://www.w3.org/2000/svg">
<g clip-path="url(#clip0_293_502)">
<path d="M1.84793 8.71611C1.92813 8.65701 1.99145 8.62324 2.03788 8.57681C4.46505 6.1623 6.888 3.74358 9.31095 1.3333C9.53467 1.10958 9.6613 0.864748 9.55155 0.548161C9.40803 0.117603 8.87617 -0.0385802 8.51737 0.244237C8.45827 0.29067 8.40762 0.341324 8.35696 0.391978C5.76095 2.97955 3.16916 5.5629 0.573141 8.15047C0.16791 8.5557 0.167909 8.90184 0.577362 9.31129C3.17338 11.8989 5.77361 14.4907 8.36963 17.0824C8.57646 17.2893 8.80441 17.4159 9.10833 17.3315C9.55577 17.2006 9.73728 16.6814 9.46713 16.3015C9.41647 16.2298 9.34894 16.1665 9.28562 16.1031C6.87533 13.6971 4.46505 11.2952 2.05055 8.89339C2.00411 8.84274 1.94924 8.80053 1.84793 8.71611Z" fill="#2D2347"/>
</g>
<defs>
<clipPath id="clip0_293_502">
<rect width="9.32455" height="17.2561" fill="white" transform="matrix(-1 0 0 1 9.59375 0.100586)"/>
</clipPath>
</defs>
</svg>
