<svg width="71" height="48" viewBox="0 0 71 48" fill="none" xmlns="http://www.w3.org/2000/svg">
<path d="M34.672 30.2081C34.672 39.6361 27.0299 47.2791 17.6011 47.2791C8.17219 47.2791 1.32859 39.8995 0.530096 30.5049C-0.688961 16.1697 10.2014 4.16727 23.4229 0.348728C18.9163 3.07363 15.7725 7.81273 15.2482 13.3244C16.02 13.2149 16.8009 13.1371 17.6011 13.1371C27.0299 13.1371 34.672 20.7792 34.672 30.2081Z" fill="#1FAAFF"/>
<path d="M70.7337 30.2081C70.7337 39.6361 63.0916 47.2791 53.6619 47.2791C44.2339 47.2791 37.3894 39.8995 36.5901 30.5049C35.371 16.1697 46.2614 4.16727 59.4838 0.348728C54.9771 3.07363 51.8341 7.81273 51.3091 13.3244C52.0808 13.2149 52.8626 13.1371 53.6619 13.1371C63.0916 13.1371 70.7337 20.7792 70.7337 30.2081Z" fill="#1FAAFF"/>
</svg>
