<svg width="16" height="16" viewBox="0 0 16 16" fill="none" xmlns="http://www.w3.org/2000/svg">
<path d="M7.8 5.19998V1.59998H4.2C3.88174 1.59998 3.57652 1.7264 3.35147 1.95145C3.12643 2.17649 3 2.48172 3 2.79998V13.2C3 13.5182 3.12643 13.8235 3.35147 14.0485C3.57652 14.2735 3.88174 14.4 4.2 14.4H11.4C11.7183 14.4 12.0235 14.2735 12.2485 14.0485C12.4736 13.8235 12.6 13.5182 12.6 13.2V6.39997H9C8.68174 6.39997 8.37651 6.27355 8.15147 6.0485C7.92643 5.82346 7.8 5.51823 7.8 5.19998ZM4.6 8.39997C4.6 8.29389 4.64214 8.19215 4.71716 8.11713C4.79217 8.04212 4.89391 7.99997 5 7.99997C5.10609 7.99997 5.20783 8.04212 5.28284 8.11713C5.35786 8.19215 5.4 8.29389 5.4 8.39997C5.4 8.50606 5.35786 8.6078 5.28284 8.68282C5.20783 8.75783 5.10609 8.79997 5 8.79997C4.89391 8.79997 4.79217 8.75783 4.71716 8.68282C4.64214 8.6078 4.6 8.50606 4.6 8.39997ZM4.6 9.99997C4.6 9.89389 4.64214 9.79215 4.71716 9.71713C4.79217 9.64212 4.89391 9.59997 5 9.59997C5.10609 9.59997 5.20783 9.64212 5.28284 9.71713C5.35786 9.79215 5.4 9.89389 5.4 9.99997C5.4 10.1061 5.35786 10.2078 5.28284 10.2828C5.20783 10.3578 5.10609 10.4 5 10.4C4.89391 10.4 4.79217 10.3578 4.71716 10.2828C4.64214 10.2078 4.6 10.1061 4.6 9.99997ZM4.6 11.6C4.6 11.4939 4.64214 11.3921 4.71716 11.3171C4.79217 11.2421 4.89391 11.2 5 11.2C5.10609 11.2 5.20783 11.2421 5.28284 11.3171C5.35786 11.3921 5.4 11.4939 5.4 11.6C5.4 11.7061 5.35786 11.8078 5.28284 11.8828C5.20783 11.9578 5.10609 12 5 12C4.89391 12 4.79217 11.9578 4.71716 11.8828C4.64214 11.8078 4.6 11.7061 4.6 11.6ZM6.2 8.39997C6.2 8.29389 6.24214 8.19215 6.31716 8.11713C6.39217 8.04212 6.49391 7.99997 6.6 7.99997H10.6C10.7061 7.99997 10.8078 8.04212 10.8828 8.11713C10.9579 8.19215 11 8.29389 11 8.39997C11 8.50606 10.9579 8.6078 10.8828 8.68282C10.8078 8.75783 10.7061 8.79997 10.6 8.79997H6.6C6.49391 8.79997 6.39217 8.75783 6.31716 8.68282C6.24214 8.6078 6.2 8.50606 6.2 8.39997ZM6.2 9.99997C6.2 9.89389 6.24214 9.79215 6.31716 9.71713C6.39217 9.64212 6.49391 9.59997 6.6 9.59997H10.6C10.7061 9.59997 10.8078 9.64212 10.8828 9.71713C10.9579 9.79215 11 9.89389 11 9.99997C11 10.1061 10.9579 10.2078 10.8828 10.2828C10.8078 10.3578 10.7061 10.4 10.6 10.4H6.6C6.49391 10.4 6.39217 10.3578 6.31716 10.2828C6.24214 10.2078 6.2 10.1061 6.2 9.99997ZM6.2 11.6C6.2 11.4939 6.24214 11.3921 6.31716 11.3171C6.39217 11.2421 6.49391 11.2 6.6 11.2H10.6C10.7061 11.2 10.8078 11.2421 10.8828 11.3171C10.9579 11.3921 11 11.4939 11 11.6C11 11.7061 10.9579 11.8078 10.8828 11.8828C10.8078 11.9578 10.7061 12 10.6 12H6.6C6.49391 12 6.39217 11.9578 6.31716 11.8828C6.24214 11.8078 6.2 11.7061 6.2 11.6ZM8.6 5.19998V1.79998L12.4 5.59998H9C8.89391 5.59998 8.79217 5.55783 8.71716 5.48282C8.64214 5.4078 8.6 5.30606 8.6 5.19998Z" fill="white"/>
</svg>
