<svg width="40" height="40" viewBox="0 0 40 40" fill="none" xmlns="http://www.w3.org/2000/svg">
<path d="M20.0005 16.2499C20.0005 14.1874 21.7349 12.4717 23.7974 12.4999C24.5197 12.5082 25.2242 12.725 25.8262 13.1241C26.4283 13.5233 26.9022 14.0878 27.1911 14.7499H30.5005L27.4724 17.778C27.277 20.8198 25.9305 23.673 23.7066 25.7575C21.4828 27.842 18.5486 29.0014 15.5005 28.9999C12.5005 28.9999 11.7505 27.8749 11.7505 27.8749C11.7505 27.8749 14.7505 26.7499 16.2505 24.4999C16.2505 24.4999 10.2505 21.4999 11.7505 13.2499C11.7505 13.2499 15.5005 16.9999 20.0005 17.7499V16.2499Z" stroke="white" stroke-width="1.2" stroke-linejoin="round"/>
<rect x="0.6" y="0.6" width="38.8" height="38.8" rx="19.4" stroke="white" stroke-width="1.2"/>
</svg>
