<svg width="40" height="40" viewBox="0 0 40 40" fill="none" xmlns="http://www.w3.org/2000/svg">
<path d="M20 23.75C22.0711 23.75 23.75 22.0711 23.75 20C23.75 17.9289 22.0711 16.25 20 16.25C17.9289 16.25 16.25 17.9289 16.25 20C16.25 22.0711 17.9289 23.75 20 23.75Z" stroke="white" stroke-width="1.2" stroke-linejoin="round"/>
<path d="M24.125 11.375H15.875C13.3897 11.375 11.375 13.3897 11.375 15.875V24.125C11.375 26.6103 13.3897 28.625 15.875 28.625H24.125C26.6103 28.625 28.625 26.6103 28.625 24.125V15.875C28.625 13.3897 26.6103 11.375 24.125 11.375Z" stroke="white" stroke-width="1.2" stroke-linejoin="round"/>
<path d="M24.875 16.25C25.4963 16.25 26 15.7463 26 15.125C26 14.5037 25.4963 14 24.875 14C24.2537 14 23.75 14.5037 23.75 15.125C23.75 15.7463 24.2537 16.25 24.875 16.25Z" fill="white"/>
<rect x="0.6" y="0.6" width="38.8" height="38.8" rx="19.4" stroke="white" stroke-width="1.2"/>
</svg>
