<svg width="23" height="23" viewBox="0 0 23 23" fill="none" xmlns="http://www.w3.org/2000/svg">
<path fill-rule="evenodd" clip-rule="evenodd" d="M9.03612 8.59537H12.5954V10.3683C13.1081 9.34862 14.4229 8.43246 16.398 8.43246C20.1844 8.43246 21.0833 10.4622 21.0833 14.1863V21.0834H17.25V15.0344C17.25 12.9136 16.7373 11.7176 15.432 11.7176C13.6217 11.7176 12.8694 13.0066 12.8694 15.0335V21.0834H9.03612V8.59537ZM2.46291 20.9205H6.29624V8.43246H2.46291V20.9205ZM6.84537 4.3605C6.84551 4.6818 6.78179 4.99993 6.6579 5.29639C6.53402 5.59286 6.35245 5.86174 6.12374 6.08742C5.66029 6.54801 5.03297 6.80583 4.37957 6.80425C3.72732 6.80381 3.10145 6.54665 2.63732 6.08837C2.40944 5.86193 2.22848 5.59275 2.10482 5.29625C1.98115 4.99974 1.91721 4.68176 1.91666 4.3605C1.91666 3.71171 2.17541 3.09071 2.63828 2.63262C3.102 2.17373 3.72814 1.91646 4.38053 1.91675C5.03412 1.91675 5.66086 2.17454 6.12374 2.63262C6.58566 3.09071 6.84537 3.71171 6.84537 4.3605Z" fill="#1FAAFF"/>
</svg>
