<svg width="24" height="24" viewBox="0 0 24 24" fill="none" xmlns="http://www.w3.org/2000/svg">
<path d="M4.03434 17.8515C4.67679 17.8515 5.19759 17.3307 5.19759 16.6883C5.19759 16.0458 4.67679 15.525 4.03434 15.525C3.3919 15.525 2.87109 16.0458 2.87109 16.6883C2.87109 17.3307 3.3919 17.8515 4.03434 17.8515Z" fill="url(#paint0_radial_431_1779)"/>
<path d="M19.9748 17.8605C20.6172 17.8605 21.138 17.3397 21.138 16.6972C21.138 16.0548 20.6172 15.534 19.9748 15.534C19.3323 15.534 18.8115 16.0548 18.8115 16.6972C18.8115 17.3397 19.3323 17.8605 19.9748 17.8605Z" fill="url(#paint1_radial_431_1779)"/>
<path d="M19.9748 17.8605C20.6172 17.8605 21.138 17.3397 21.138 16.6972C21.138 16.0548 20.6172 15.534 19.9748 15.534C19.3323 15.534 18.8115 16.0548 18.8115 16.6972C18.8115 17.3397 19.3323 17.8605 19.9748 17.8605Z" fill="url(#paint2_radial_431_1779)"/>
<path d="M6.75526 9.06224C6.30526 9.73724 5.97751 10.656 5.86426 11.0077L7.62226 12.273L8.96476 10.5735C8.72534 10.2099 8.47524 9.85352 8.21476 9.50474C8.00274 9.23953 7.77745 8.9852 7.53976 8.74274L6.75526 9.06224Z" fill="url(#paint3_radial_431_1779)"/>
<path d="M6.75526 9.06224C6.30526 9.73724 5.97751 10.656 5.86426 11.0077L7.62226 12.273L8.96476 10.5735C8.72534 10.2099 8.47524 9.85352 8.21476 9.50474C8.00274 9.23953 7.77745 8.9852 7.53976 8.74274L6.75526 9.06224Z" fill="url(#paint4_radial_431_1779)"/>
<path d="M17.2437 9.06224C17.6937 9.73724 18.0215 10.656 18.1347 11.0077L16.3767 12.273L15.0342 10.5735C15.1932 10.3297 15.569 9.78599 15.7842 9.50474C16.0002 9.22349 16.3257 8.87924 16.4592 8.74274L17.2437 9.06224Z" fill="url(#paint5_radial_431_1779)"/>
<path d="M17.2437 9.06224C17.6937 9.73724 18.0215 10.656 18.1347 11.0077L16.3767 12.273L15.0342 10.5735C15.1932 10.3297 15.569 9.78599 15.7842 9.50474C16.0002 9.22349 16.3257 8.87924 16.4592 8.74274L17.2437 9.06224Z" fill="url(#paint6_radial_431_1779)"/>
<path d="M17.2437 9.06224C17.6937 9.73724 18.0215 10.656 18.1347 11.0077L16.3767 12.273L15.0342 10.5735C15.1932 10.3297 15.569 9.78599 15.7842 9.50474C16.0002 9.22349 16.3257 8.87924 16.4592 8.74274L17.2437 9.06224Z" fill="url(#paint7_radial_431_1779)"/>
<g filter="url(#filter0_ii_431_1779)">
<path d="M2.34346 9.11477L4.67296 20.484C4.72862 20.7549 4.87614 20.9983 5.09056 21.1729C5.30499 21.3476 5.57316 21.4428 5.84971 21.4425H18.1497C18.4263 21.4426 18.6945 21.3471 18.9088 21.1721C19.1231 20.9972 19.2704 20.7536 19.3257 20.4825L21.6552 9.11402L20.9112 8.75102C19.7982 9.55952 17.4672 11.2178 16.8657 11.5808C16.3857 11.8703 15.9447 11.3985 15.8532 11.2643C15.0155 10.0343 13.7367 8.24327 13.2582 7.61402C12.7692 6.96902 12.2157 6.65102 11.999 6.62402C11.7822 6.65102 11.2287 6.96902 10.739 7.61402C10.2612 8.24327 8.98321 10.0343 8.14471 11.2643C8.05321 11.3985 7.61221 11.871 7.13221 11.5808C6.53071 11.2178 4.19971 9.55952 3.08671 8.75102L2.34271 9.11402L2.34346 9.11477Z" fill="url(#paint8_linear_431_1779)"/>
<path d="M2.34346 9.11477L4.67296 20.484C4.72862 20.7549 4.87614 20.9983 5.09056 21.1729C5.30499 21.3476 5.57316 21.4428 5.84971 21.4425H18.1497C18.4263 21.4426 18.6945 21.3471 18.9088 21.1721C19.1231 20.9972 19.2704 20.7536 19.3257 20.4825L21.6552 9.11402L20.9112 8.75102C19.7982 9.55952 17.4672 11.2178 16.8657 11.5808C16.3857 11.8703 15.9447 11.3985 15.8532 11.2643C15.0155 10.0343 13.7367 8.24327 13.2582 7.61402C12.7692 6.96902 12.2157 6.65102 11.999 6.62402C11.7822 6.65102 11.2287 6.96902 10.739 7.61402C10.2612 8.24327 8.98321 10.0343 8.14471 11.2643C8.05321 11.3985 7.61221 11.871 7.13221 11.5808C6.53071 11.2178 4.19971 9.55952 3.08671 8.75102L2.34271 9.11402L2.34346 9.11477Z" fill="url(#paint9_radial_431_1779)"/>
</g>
<path d="M2.34346 9.11477L4.67296 20.484C4.72862 20.7549 4.87614 20.9983 5.09056 21.1729C5.30499 21.3476 5.57316 21.4428 5.84971 21.4425H18.1497C18.4263 21.4426 18.6945 21.3471 18.9088 21.1721C19.1231 20.9972 19.2704 20.7536 19.3257 20.4825L21.6552 9.11402L20.9112 8.75102C19.7982 9.55952 17.4672 11.2178 16.8657 11.5808C16.3857 11.8703 15.9447 11.3985 15.8532 11.2643C15.0155 10.0343 13.7367 8.24327 13.2582 7.61402C12.7692 6.96902 12.2157 6.65102 11.999 6.62402C11.7822 6.65102 11.2287 6.96902 10.739 7.61402C10.2612 8.24327 8.98321 10.0343 8.14471 11.2643C8.05321 11.3985 7.61221 11.871 7.13221 11.5808C6.53071 11.2178 4.19971 9.55952 3.08671 8.75102L2.34271 9.11402L2.34346 9.11477Z" fill="url(#paint10_linear_431_1779)"/>
<path d="M2.34346 9.11477L4.67296 20.484C4.72862 20.7549 4.87614 20.9983 5.09056 21.1729C5.30499 21.3476 5.57316 21.4428 5.84971 21.4425H18.1497C18.4263 21.4426 18.6945 21.3471 18.9088 21.1721C19.1231 20.9972 19.2704 20.7536 19.3257 20.4825L21.6552 9.11402L20.9112 8.75102C19.7982 9.55952 17.4672 11.2178 16.8657 11.5808C16.3857 11.8703 15.9447 11.3985 15.8532 11.2643C15.0155 10.0343 13.7367 8.24327 13.2582 7.61402C12.7692 6.96902 12.2157 6.65102 11.999 6.62402C11.7822 6.65102 11.2287 6.96902 10.739 7.61402C10.2612 8.24327 8.98321 10.0343 8.14471 11.2643C8.05321 11.3985 7.61221 11.871 7.13221 11.5808C6.53071 11.2178 4.19971 9.55952 3.08671 8.75102L2.34271 9.11402L2.34346 9.11477Z" fill="url(#paint11_linear_431_1779)"/>
<path d="M2.34346 9.11477L4.67296 20.484C4.72862 20.7549 4.87614 20.9983 5.09056 21.1729C5.30499 21.3476 5.57316 21.4428 5.84971 21.4425H18.1497C18.4263 21.4426 18.6945 21.3471 18.9088 21.1721C19.1231 20.9972 19.2704 20.7536 19.3257 20.4825L21.6552 9.11402L20.9112 8.75102C19.7982 9.55952 17.4672 11.2178 16.8657 11.5808C16.3857 11.8703 15.9447 11.3985 15.8532 11.2643C15.0155 10.0343 13.7367 8.24327 13.2582 7.61402C12.7692 6.96902 12.2157 6.65102 11.999 6.62402C11.7822 6.65102 11.2287 6.96902 10.739 7.61402C10.2612 8.24327 8.98321 10.0343 8.14471 11.2643C8.05321 11.3985 7.61221 11.871 7.13221 11.5808C6.53071 11.2178 4.19971 9.55952 3.08671 8.75102L2.34271 9.11402L2.34346 9.11477Z" fill="url(#paint12_linear_431_1779)"/>
<path d="M2.34346 9.11477L4.67296 20.484C4.72862 20.7549 4.87614 20.9983 5.09056 21.1729C5.30499 21.3476 5.57316 21.4428 5.84971 21.4425H18.1497C18.4263 21.4426 18.6945 21.3471 18.9088 21.1721C19.1231 20.9972 19.2704 20.7536 19.3257 20.4825L21.6552 9.11402L20.9112 8.75102C19.7982 9.55952 17.4672 11.2178 16.8657 11.5808C16.3857 11.8703 15.9447 11.3985 15.8532 11.2643C15.0155 10.0343 13.7367 8.24327 13.2582 7.61402C12.7692 6.96902 12.2157 6.65102 11.999 6.62402C11.7822 6.65102 11.2287 6.96902 10.739 7.61402C10.2612 8.24327 8.98321 10.0343 8.14471 11.2643C8.05321 11.3985 7.61221 11.871 7.13221 11.5808C6.53071 11.2178 4.19971 9.55952 3.08671 8.75102L2.34271 9.11402L2.34346 9.11477Z" fill="url(#paint13_radial_431_1779)"/>
<path d="M2.34346 9.11477L4.67296 20.484C4.72862 20.7549 4.87614 20.9983 5.09056 21.1729C5.30499 21.3476 5.57316 21.4428 5.84971 21.4425H18.1497C18.4263 21.4426 18.6945 21.3471 18.9088 21.1721C19.1231 20.9972 19.2704 20.7536 19.3257 20.4825L21.6552 9.11402L20.9112 8.75102C19.7982 9.55952 17.4672 11.2178 16.8657 11.5808C16.3857 11.8703 15.9447 11.3985 15.8532 11.2643C15.0155 10.0343 13.7367 8.24327 13.2582 7.61402C12.7692 6.96902 12.2157 6.65102 11.999 6.62402C11.7822 6.65102 11.2287 6.96902 10.739 7.61402C10.2612 8.24327 8.98321 10.0343 8.14471 11.2643C8.05321 11.3985 7.61221 11.871 7.13221 11.5808C6.53071 11.2178 4.19971 9.55952 3.08671 8.75102L2.34271 9.11402L2.34346 9.11477Z" fill="url(#paint14_radial_431_1779)"/>
<path d="M2.34346 9.11477L4.67296 20.484C4.72862 20.7549 4.87614 20.9983 5.09056 21.1729C5.30499 21.3476 5.57316 21.4428 5.84971 21.4425H18.1497C18.4263 21.4426 18.6945 21.3471 18.9088 21.1721C19.1231 20.9972 19.2704 20.7536 19.3257 20.4825L21.6552 9.11402L20.9112 8.75102C19.7982 9.55952 17.4672 11.2178 16.8657 11.5808C16.3857 11.8703 15.9447 11.3985 15.8532 11.2643C15.0155 10.0343 13.7367 8.24327 13.2582 7.61402C12.7692 6.96902 12.2157 6.65102 11.999 6.62402C11.7822 6.65102 11.2287 6.96902 10.739 7.61402C10.2612 8.24327 8.98321 10.0343 8.14471 11.2643C8.05321 11.3985 7.61221 11.871 7.13221 11.5808C6.53071 11.2178 4.19971 9.55952 3.08671 8.75102L2.34271 9.11402L2.34346 9.11477Z" fill="url(#paint15_radial_431_1779)"/>
<g filter="url(#filter1_ii_431_1779)">
<path d="M17.8347 17.0572C17.6352 17.6677 16.9962 17.9737 16.3857 17.775C15.9252 17.5875 15.7265 17.0617 15.9252 16.4512C16.124 15.84 16.7502 15.4897 17.1297 15.6127C17.7402 15.8115 18.0327 16.446 17.8347 17.0572Z" fill="url(#paint16_radial_431_1779)"/>
<path d="M17.8347 17.0572C17.6352 17.6677 16.9962 17.9737 16.3857 17.775C15.9252 17.5875 15.7265 17.0617 15.9252 16.4512C16.124 15.84 16.7502 15.4897 17.1297 15.6127C17.7402 15.8115 18.0327 16.446 17.8347 17.0572Z" fill="url(#paint17_radial_431_1779)"/>
</g>
<g filter="url(#filter2_ii_431_1779)">
<path d="M6.22295 17.0572C6.4217 17.6677 7.0607 17.9737 7.67195 17.775C8.1317 17.5875 8.33045 17.0617 8.1317 16.4512C7.93295 15.84 7.3067 15.4897 6.92795 15.6127C6.3167 15.8115 6.0242 16.446 6.22295 17.0572Z" fill="url(#paint18_radial_431_1779)"/>
<path d="M6.22295 17.0572C6.4217 17.6677 7.0607 17.9737 7.67195 17.775C8.1317 17.5875 8.33045 17.0617 8.1317 16.4512C7.93295 15.84 7.3067 15.4897 6.92795 15.6127C6.3167 15.8115 6.0242 16.446 6.22295 17.0572Z" fill="url(#paint19_radial_431_1779)"/>
</g>
<path d="M3.69122 8.94375C3.69122 9.22033 3.58134 9.48559 3.38577 9.68117C3.19019 9.87675 2.92493 9.98662 2.64834 9.98662C2.37176 9.98662 2.1065 9.87675 1.91092 9.68117C1.71534 9.48559 1.60547 9.22033 1.60547 8.94375C1.60547 8.66726 1.7153 8.40209 1.91081 8.20659C2.10632 8.01108 2.37148 7.90125 2.64797 7.90125C2.92446 7.90125 3.18962 8.01108 3.38513 8.20659C3.58063 8.40209 3.69047 8.66726 3.69047 8.94375H3.69122Z" fill="url(#paint20_radial_431_1779)"/>
<path d="M3.69122 8.94375C3.69122 9.22033 3.58134 9.48559 3.38577 9.68117C3.19019 9.87675 2.92493 9.98662 2.64834 9.98662C2.37176 9.98662 2.1065 9.87675 1.91092 9.68117C1.71534 9.48559 1.60547 9.22033 1.60547 8.94375C1.60547 8.66726 1.7153 8.40209 1.91081 8.20659C2.10632 8.01108 2.37148 7.90125 2.64797 7.90125C2.92446 7.90125 3.18962 8.01108 3.38513 8.20659C3.58063 8.40209 3.69047 8.66726 3.69047 8.94375H3.69122Z" fill="url(#paint21_radial_431_1779)"/>
<path d="M3.69122 8.94375C3.69122 9.22033 3.58134 9.48559 3.38577 9.68117C3.19019 9.87675 2.92493 9.98662 2.64834 9.98662C2.37176 9.98662 2.1065 9.87675 1.91092 9.68117C1.71534 9.48559 1.60547 9.22033 1.60547 8.94375C1.60547 8.66726 1.7153 8.40209 1.91081 8.20659C2.10632 8.01108 2.37148 7.90125 2.64797 7.90125C2.92446 7.90125 3.18962 8.01108 3.38513 8.20659C3.58063 8.40209 3.69047 8.66726 3.69047 8.94375H3.69122Z" fill="url(#paint22_radial_431_1779)"/>
<path d="M3.69122 8.94375C3.69122 9.22033 3.58134 9.48559 3.38577 9.68117C3.19019 9.87675 2.92493 9.98662 2.64834 9.98662C2.37176 9.98662 2.1065 9.87675 1.91092 9.68117C1.71534 9.48559 1.60547 9.22033 1.60547 8.94375C1.60547 8.66726 1.7153 8.40209 1.91081 8.20659C2.10632 8.01108 2.37148 7.90125 2.64797 7.90125C2.92446 7.90125 3.18962 8.01108 3.38513 8.20659C3.58063 8.40209 3.69047 8.66726 3.69047 8.94375H3.69122Z" fill="url(#paint23_radial_431_1779)"/>
<path d="M7.71006 9.13502C7.90918 9.01838 8.06397 8.83896 8.15017 8.62489C8.23637 8.41083 8.2491 8.17421 8.18637 7.95212C8.12365 7.73004 7.989 7.53505 7.80355 7.39771C7.61809 7.26037 7.39231 7.18845 7.16159 7.19322C6.93087 7.19798 6.70825 7.27917 6.52862 7.42405C6.349 7.56894 6.22253 7.76933 6.16903 7.99381C6.11553 8.21829 6.13803 8.45419 6.23299 8.66451C6.32796 8.87484 6.49003 9.0477 6.69381 9.15602C6.79422 9.11736 6.90442 9.1121 7.00806 9.14102C7.16856 9.18752 7.43256 9.24602 7.71081 9.13502H7.71006Z" fill="url(#paint24_radial_431_1779)"/>
<path d="M7.71006 9.13502C7.90918 9.01838 8.06397 8.83896 8.15017 8.62489C8.23637 8.41083 8.2491 8.17421 8.18637 7.95212C8.12365 7.73004 7.989 7.53505 7.80355 7.39771C7.61809 7.26037 7.39231 7.18845 7.16159 7.19322C6.93087 7.19798 6.70825 7.27917 6.52862 7.42405C6.349 7.56894 6.22253 7.76933 6.16903 7.99381C6.11553 8.21829 6.13803 8.45419 6.23299 8.66451C6.32796 8.87484 6.49003 9.0477 6.69381 9.15602C6.79422 9.11736 6.90442 9.1121 7.00806 9.14102C7.16856 9.18752 7.43256 9.24602 7.71081 9.13502H7.71006Z" fill="url(#paint25_radial_431_1779)"/>
<path d="M7.71006 9.13502C7.90918 9.01838 8.06397 8.83896 8.15017 8.62489C8.23637 8.41083 8.2491 8.17421 8.18637 7.95212C8.12365 7.73004 7.989 7.53505 7.80355 7.39771C7.61809 7.26037 7.39231 7.18845 7.16159 7.19322C6.93087 7.19798 6.70825 7.27917 6.52862 7.42405C6.349 7.56894 6.22253 7.76933 6.16903 7.99381C6.11553 8.21829 6.13803 8.45419 6.23299 8.66451C6.32796 8.87484 6.49003 9.0477 6.69381 9.15602C6.79422 9.11736 6.90442 9.1121 7.00806 9.14102C7.16856 9.18752 7.43256 9.24602 7.71081 9.13502H7.71006Z" fill="url(#paint26_radial_431_1779)"/>
<path d="M7.71006 9.13502C7.90918 9.01838 8.06397 8.83896 8.15017 8.62489C8.23637 8.41083 8.2491 8.17421 8.18637 7.95212C8.12365 7.73004 7.989 7.53505 7.80355 7.39771C7.61809 7.26037 7.39231 7.18845 7.16159 7.19322C6.93087 7.19798 6.70825 7.27917 6.52862 7.42405C6.349 7.56894 6.22253 7.76933 6.16903 7.99381C6.11553 8.21829 6.13803 8.45419 6.23299 8.66451C6.32796 8.87484 6.49003 9.0477 6.69381 9.15602C6.79422 9.11736 6.90442 9.1121 7.00806 9.14102C7.16856 9.18752 7.43256 9.24602 7.71081 9.13502H7.71006Z" fill="url(#paint27_radial_431_1779)"/>
<g filter="url(#filter3_i_431_1779)">
<path d="M16.29 9.13502C16.0909 9.01838 15.9361 8.83896 15.8499 8.62489C15.7637 8.41083 15.7509 8.17421 15.8137 7.95212C15.8764 7.73004 16.011 7.53505 16.1965 7.39771C16.3819 7.26037 16.6077 7.18845 16.8385 7.19322C17.0692 7.19798 17.2918 7.27917 17.4714 7.42405C17.651 7.56894 17.7775 7.76933 17.831 7.99381C17.8845 8.21829 17.862 8.45419 17.767 8.66451C17.6721 8.87484 17.51 9.0477 17.3062 9.15602C17.2058 9.11736 17.0956 9.1121 16.992 9.14102C16.8315 9.18752 16.5675 9.24602 16.2892 9.13502H16.29Z" fill="url(#paint28_radial_431_1779)"/>
<path d="M16.29 9.13502C16.0909 9.01838 15.9361 8.83896 15.8499 8.62489C15.7637 8.41083 15.7509 8.17421 15.8137 7.95212C15.8764 7.73004 16.011 7.53505 16.1965 7.39771C16.3819 7.26037 16.6077 7.18845 16.8385 7.19322C17.0692 7.19798 17.2918 7.27917 17.4714 7.42405C17.651 7.56894 17.7775 7.76933 17.831 7.99381C17.8845 8.21829 17.862 8.45419 17.767 8.66451C17.6721 8.87484 17.51 9.0477 17.3062 9.15602C17.2058 9.11736 17.0956 9.1121 16.992 9.14102C16.8315 9.18752 16.5675 9.24602 16.2892 9.13502H16.29Z" fill="url(#paint29_radial_431_1779)"/>
</g>
<g filter="url(#filter4_ii_431_1779)">
<path d="M12.0278 18.5955C13.05 18.5955 13.8788 17.7668 13.8788 16.7445C13.8788 15.7222 13.05 14.8935 12.0278 14.8935C11.0055 14.8935 10.1768 15.7222 10.1768 16.7445C10.1768 17.7668 11.0055 18.5955 12.0278 18.5955Z" fill="url(#paint30_radial_431_1779)"/>
</g>
<g filter="url(#filter5_f_431_1779)">
<path d="M12.1572 7.01625C12.287 7.00125 12.617 7.068 12.9072 7.46175C13.1982 7.8555 14.9667 10.3755 15.8142 11.5867C15.9785 11.8402 16.4637 12.2407 17.0915 11.8095C17.72 11.3782 19.7397 9.91575 20.5017 9.408" stroke="url(#paint31_linear_431_1779)" stroke-width="0.15"/>
<path d="M12.1572 7.01625C12.287 7.00125 12.617 7.068 12.9072 7.46175C13.1982 7.8555 14.9667 10.3755 15.8142 11.5867C15.9785 11.8402 16.4637 12.2407 17.0915 11.8095C17.72 11.3782 19.7397 9.91575 20.5017 9.408" stroke="url(#paint32_radial_431_1779)" stroke-width="0.15"/>
</g>
<path d="M11.9963 7.0845C12.7423 7.0845 13.347 6.47974 13.347 5.73375C13.347 4.98775 12.7423 4.383 11.9963 4.383C11.2503 4.383 10.6455 4.98775 10.6455 5.73375C10.6455 6.47974 11.2503 7.0845 11.9963 7.0845Z" fill="url(#paint33_radial_431_1779)"/>
<path d="M11.9963 7.0845C12.7423 7.0845 13.347 6.47974 13.347 5.73375C13.347 4.98775 12.7423 4.383 11.9963 4.383C11.2503 4.383 10.6455 4.98775 10.6455 5.73375C10.6455 6.47974 11.2503 7.0845 11.9963 7.0845Z" fill="url(#paint34_radial_431_1779)"/>
<path d="M11.9963 7.0845C12.7423 7.0845 13.347 6.47974 13.347 5.73375C13.347 4.98775 12.7423 4.383 11.9963 4.383C11.2503 4.383 10.6455 4.98775 10.6455 5.73375C10.6455 6.47974 11.2503 7.0845 11.9963 7.0845Z" fill="url(#paint35_radial_431_1779)"/>
<path d="M11.9963 7.0845C12.7423 7.0845 13.347 6.47974 13.347 5.73375C13.347 4.98775 12.7423 4.383 11.9963 4.383C11.2503 4.383 10.6455 4.98775 10.6455 5.73375C10.6455 6.47974 11.2503 7.0845 11.9963 7.0845Z" fill="url(#paint36_radial_431_1779)"/>
<path d="M22.4412 8.94375C22.4412 9.22033 22.3313 9.48559 22.1358 9.68117C21.9402 9.87675 21.6749 9.98662 21.3983 9.98662C21.1218 9.98662 20.8565 9.87675 20.6609 9.68117C20.4653 9.48559 20.3555 9.22033 20.3555 8.94375C20.3555 8.66726 20.4653 8.40209 20.6608 8.20659C20.8563 8.01108 21.1215 7.90125 21.398 7.90125C21.6745 7.90125 21.9396 8.01108 22.1351 8.20659C22.3306 8.40209 22.4405 8.66726 22.4405 8.94375H22.4412Z" fill="url(#paint37_radial_431_1779)"/>
<path d="M22.4412 8.94375C22.4412 9.22033 22.3313 9.48559 22.1358 9.68117C21.9402 9.87675 21.6749 9.98662 21.3983 9.98662C21.1218 9.98662 20.8565 9.87675 20.6609 9.68117C20.4653 9.48559 20.3555 9.22033 20.3555 8.94375C20.3555 8.66726 20.4653 8.40209 20.6608 8.20659C20.8563 8.01108 21.1215 7.90125 21.398 7.90125C21.6745 7.90125 21.9396 8.01108 22.1351 8.20659C22.3306 8.40209 22.4405 8.66726 22.4405 8.94375H22.4412Z" fill="url(#paint38_radial_431_1779)"/>
<path d="M22.4412 8.94375C22.4412 9.22033 22.3313 9.48559 22.1358 9.68117C21.9402 9.87675 21.6749 9.98662 21.3983 9.98662C21.1218 9.98662 20.8565 9.87675 20.6609 9.68117C20.4653 9.48559 20.3555 9.22033 20.3555 8.94375C20.3555 8.66726 20.4653 8.40209 20.6608 8.20659C20.8563 8.01108 21.1215 7.90125 21.398 7.90125C21.6745 7.90125 21.9396 8.01108 22.1351 8.20659C22.3306 8.40209 22.4405 8.66726 22.4405 8.94375H22.4412Z" fill="url(#paint39_radial_431_1779)"/>
<path d="M22.4412 8.94375C22.4412 9.22033 22.3313 9.48559 22.1358 9.68117C21.9402 9.87675 21.6749 9.98662 21.3983 9.98662C21.1218 9.98662 20.8565 9.87675 20.6609 9.68117C20.4653 9.48559 20.3555 9.22033 20.3555 8.94375C20.3555 8.66726 20.4653 8.40209 20.6608 8.20659C20.8563 8.01108 21.1215 7.90125 21.398 7.90125C21.6745 7.90125 21.9396 8.01108 22.1351 8.20659C22.3306 8.40209 22.4405 8.66726 22.4405 8.94375H22.4412Z" fill="url(#paint40_radial_431_1779)"/>
<defs>
<filter id="filter0_ii_431_1779" x="1.94271" y="6.52402" width="20.1125" height="14.9185" filterUnits="userSpaceOnUse" color-interpolation-filters="sRGB">
<feFlood flood-opacity="0" result="BackgroundImageFix"/>
<feBlend mode="normal" in="SourceGraphic" in2="BackgroundImageFix" result="shape"/>
<feColorMatrix in="SourceAlpha" type="matrix" values="0 0 0 0 0 0 0 0 0 0 0 0 0 0 0 0 0 0 127 0" result="hardAlpha"/>
<feOffset dx="0.4" dy="-0.1"/>
<feGaussianBlur stdDeviation="0.25"/>
<feComposite in2="hardAlpha" operator="arithmetic" k2="-1" k3="1"/>
<feColorMatrix type="matrix" values="0 0 0 0 0.803922 0 0 0 0 0.580392 0 0 0 0 0.262745 0 0 0 1 0"/>
<feBlend mode="normal" in2="shape" result="effect1_innerShadow_431_1779"/>
<feColorMatrix in="SourceAlpha" type="matrix" values="0 0 0 0 0 0 0 0 0 0 0 0 0 0 0 0 0 0 127 0" result="hardAlpha"/>
<feOffset dx="-0.4" dy="-0.1"/>
<feGaussianBlur stdDeviation="0.25"/>
<feComposite in2="hardAlpha" operator="arithmetic" k2="-1" k3="1"/>
<feColorMatrix type="matrix" values="0 0 0 0 0.894118 0 0 0 0 0.686275 0 0 0 0 0.301961 0 0 0 1 0"/>
<feBlend mode="normal" in2="effect1_innerShadow_431_1779" result="effect2_innerShadow_431_1779"/>
</filter>
<filter id="filter1_ii_431_1779" x="15.5984" y="15.4383" width="2.44774" height="2.64701" filterUnits="userSpaceOnUse" color-interpolation-filters="sRGB">
<feFlood flood-opacity="0" result="BackgroundImageFix"/>
<feBlend mode="normal" in="SourceGraphic" in2="BackgroundImageFix" result="shape"/>
<feColorMatrix in="SourceAlpha" type="matrix" values="0 0 0 0 0 0 0 0 0 0 0 0 0 0 0 0 0 0 127 0" result="hardAlpha"/>
<feOffset dx="-0.25" dy="0.25"/>
<feGaussianBlur stdDeviation="0.375"/>
<feComposite in2="hardAlpha" operator="arithmetic" k2="-1" k3="1"/>
<feColorMatrix type="matrix" values="0 0 0 0 1 0 0 0 0 0.54902 0 0 0 0 0.305882 0 0 0 1 0"/>
<feBlend mode="normal" in2="shape" result="effect1_innerShadow_431_1779"/>
<feColorMatrix in="SourceAlpha" type="matrix" values="0 0 0 0 0 0 0 0 0 0 0 0 0 0 0 0 0 0 127 0" result="hardAlpha"/>
<feOffset dx="0.15" dy="-0.15"/>
<feGaussianBlur stdDeviation="0.25"/>
<feComposite in2="hardAlpha" operator="arithmetic" k2="-1" k3="1"/>
<feColorMatrix type="matrix" values="0 0 0 0 0.984314 0 0 0 0 0.219608 0 0 0 0 0.254902 0 0 0 1 0"/>
<feBlend mode="normal" in2="effect1_innerShadow_431_1779" result="effect2_innerShadow_431_1779"/>
</filter>
<filter id="filter2_ii_431_1779" x="5.91113" y="15.5883" width="2.59738" height="2.54701" filterUnits="userSpaceOnUse" color-interpolation-filters="sRGB">
<feFlood flood-opacity="0" result="BackgroundImageFix"/>
<feBlend mode="normal" in="SourceGraphic" in2="BackgroundImageFix" result="shape"/>
<feColorMatrix in="SourceAlpha" type="matrix" values="0 0 0 0 0 0 0 0 0 0 0 0 0 0 0 0 0 0 127 0" result="hardAlpha"/>
<feOffset dx="-0.25" dy="0.25"/>
<feGaussianBlur stdDeviation="0.375"/>
<feComposite in2="hardAlpha" operator="arithmetic" k2="-1" k3="1"/>
<feColorMatrix type="matrix" values="0 0 0 0 0.905882 0 0 0 0 0.439216 0 0 0 0 0.278431 0 0 0 1 0"/>
<feBlend mode="normal" in2="shape" result="effect1_innerShadow_431_1779"/>
<feColorMatrix in="SourceAlpha" type="matrix" values="0 0 0 0 0 0 0 0 0 0 0 0 0 0 0 0 0 0 127 0" result="hardAlpha"/>
<feOffset dx="0.3" dy="0.3"/>
<feGaussianBlur stdDeviation="0.3"/>
<feComposite in2="hardAlpha" operator="arithmetic" k2="-1" k3="1"/>
<feColorMatrix type="matrix" values="0 0 0 0 0.796078 0 0 0 0 0.141176 0 0 0 0 0.223529 0 0 0 1 0"/>
<feBlend mode="normal" in2="effect1_innerShadow_431_1779" result="effect2_innerShadow_431_1779"/>
</filter>
<filter id="filter3_i_431_1779" x="15.7744" y="7.19299" width="2.08501" height="2.00562" filterUnits="userSpaceOnUse" color-interpolation-filters="sRGB">
<feFlood flood-opacity="0" result="BackgroundImageFix"/>
<feBlend mode="normal" in="SourceGraphic" in2="BackgroundImageFix" result="shape"/>
<feColorMatrix in="SourceAlpha" type="matrix" values="0 0 0 0 0 0 0 0 0 0 0 0 0 0 0 0 0 0 127 0" result="hardAlpha"/>
<feOffset/>
<feGaussianBlur stdDeviation="0.125"/>
<feComposite in2="hardAlpha" operator="arithmetic" k2="-1" k3="1"/>
<feColorMatrix type="matrix" values="0 0 0 0 0.756863 0 0 0 0 0.619608 0 0 0 0 0.321569 0 0 0 1 0"/>
<feBlend mode="normal" in2="shape" result="effect1_innerShadow_431_1779"/>
</filter>
<filter id="filter4_ii_431_1779" x="9.67676" y="14.1435" width="4.952" height="4.95203" filterUnits="userSpaceOnUse" color-interpolation-filters="sRGB">
<feFlood flood-opacity="0" result="BackgroundImageFix"/>
<feBlend mode="normal" in="SourceGraphic" in2="BackgroundImageFix" result="shape"/>
<feColorMatrix in="SourceAlpha" type="matrix" values="0 0 0 0 0 0 0 0 0 0 0 0 0 0 0 0 0 0 127 0" result="hardAlpha"/>
<feOffset dx="-0.5" dy="0.5"/>
<feGaussianBlur stdDeviation="0.625"/>
<feComposite in2="hardAlpha" operator="arithmetic" k2="-1" k3="1"/>
<feColorMatrix type="matrix" values="0 0 0 0 0.937255 0 0 0 0 0.443137 0 0 0 0 0.376471 0 0 0 1 0"/>
<feBlend mode="normal" in2="shape" result="effect1_innerShadow_431_1779"/>
<feColorMatrix in="SourceAlpha" type="matrix" values="0 0 0 0 0 0 0 0 0 0 0 0 0 0 0 0 0 0 127 0" result="hardAlpha"/>
<feOffset dx="0.75" dy="-0.75"/>
<feGaussianBlur stdDeviation="0.75"/>
<feComposite in2="hardAlpha" operator="arithmetic" k2="-1" k3="1"/>
<feColorMatrix type="matrix" values="0 0 0 0 0.313726 0 0 0 0 0.384314 0 0 0 0 1 0 0 0 1 0"/>
<feBlend mode="normal" in2="effect1_innerShadow_431_1779" result="effect2_innerShadow_431_1779"/>
</filter>
<filter id="filter5_f_431_1779" x="11.9986" y="6.78933" width="8.6947" height="5.43574" filterUnits="userSpaceOnUse" color-interpolation-filters="sRGB">
<feFlood flood-opacity="0" result="BackgroundImageFix"/>
<feBlend mode="normal" in="SourceGraphic" in2="BackgroundImageFix" result="shape"/>
<feGaussianBlur stdDeviation="0.075" result="effect1_foregroundBlur_431_1779"/>
</filter>
<radialGradient id="paint0_radial_431_1779" cx="0" cy="0" r="1" gradientUnits="userSpaceOnUse" gradientTransform="translate(4.03405 17.4354) rotate(-103.54) scale(1.31386 1.61752)">
<stop stop-color="#395DE0"/>
<stop offset="1" stop-color="#2C68A3"/>
</radialGradient>
<radialGradient id="paint1_radial_431_1779" cx="0" cy="0" r="1" gradientUnits="userSpaceOnUse" gradientTransform="translate(20.6952 15.7366) rotate(108.743) scale(2.24296)">
<stop offset="0.249" stop-color="#3DB3F3"/>
<stop offset="1" stop-color="#5B73F4"/>
</radialGradient>
<radialGradient id="paint2_radial_431_1779" cx="0" cy="0" r="1" gradientUnits="userSpaceOnUse" gradientTransform="translate(21.069 16.2405) rotate(161.162) scale(1.05247 0.667287)">
<stop offset="0.258" stop-color="#5FBEFF"/>
<stop offset="1" stop-color="#5FBEFF" stop-opacity="0"/>
</radialGradient>
<radialGradient id="paint3_radial_431_1779" cx="0" cy="0" r="1" gradientUnits="userSpaceOnUse" gradientTransform="translate(6.49126 10.17) rotate(15.9454) scale(2.38879 5.96231)">
<stop stop-color="#FBC96E"/>
<stop offset="1" stop-color="#FAC567"/>
</radialGradient>
<radialGradient id="paint4_radial_431_1779" cx="0" cy="0" r="1" gradientUnits="userSpaceOnUse" gradientTransform="translate(7.89751 10.6852) rotate(-156.753) scale(1.81111 5.447)">
<stop offset="0.765" stop-color="#D89F3A" stop-opacity="0"/>
<stop offset="0.911" stop-color="#DAA139"/>
</radialGradient>
<radialGradient id="paint5_radial_431_1779" cx="0" cy="0" r="1" gradientUnits="userSpaceOnUse" gradientTransform="translate(17.9061 11.6223) rotate(-125.455) scale(1.89902 1.94762)">
<stop offset="0.254" stop-color="#BF812A"/>
<stop offset="1" stop-color="#CE9333"/>
</radialGradient>
<radialGradient id="paint6_radial_431_1779" cx="0" cy="0" r="1" gradientUnits="userSpaceOnUse" gradientTransform="translate(16.4412 10.6965) rotate(-23.0909) scale(1.64338 4.28128)">
<stop offset="0.734" stop-color="#E9BB61" stop-opacity="0"/>
<stop offset="0.929" stop-color="#E9BB61"/>
</radialGradient>
<radialGradient id="paint7_radial_431_1779" cx="0" cy="0" r="1" gradientUnits="userSpaceOnUse" gradientTransform="translate(17.4145 11.1651) rotate(-142.922) scale(2.58518 4.3613)">
<stop offset="0.773" stop-color="#C18739" stop-opacity="0"/>
<stop offset="0.948" stop-color="#C18739"/>
</radialGradient>
<linearGradient id="paint8_linear_431_1779" x1="17.4042" y1="15.435" x2="4.15471" y2="18.525" gradientUnits="userSpaceOnUse">
<stop stop-color="#FFBC5D"/>
<stop offset="0.304" stop-color="#FCAD6A"/>
<stop offset="1" stop-color="#CB7547"/>
</linearGradient>
<radialGradient id="paint9_radial_431_1779" cx="0" cy="0" r="1" gradientUnits="userSpaceOnUse" gradientTransform="translate(9.09946 23.8943) rotate(-69.4212) scale(8.25195 16.061)">
<stop stop-color="#F67B4E"/>
<stop offset="1" stop-color="#F67B4E" stop-opacity="0"/>
</radialGradient>
<linearGradient id="paint10_linear_431_1779" x1="3.96046" y1="18.2085" x2="5.99971" y2="17.787" gradientUnits="userSpaceOnUse">
<stop stop-color="#C2794C"/>
<stop offset="1" stop-color="#E07648" stop-opacity="0"/>
</linearGradient>
<linearGradient id="paint11_linear_431_1779" x1="19.9685" y1="19.521" x2="16.4997" y2="18.7245" gradientUnits="userSpaceOnUse">
<stop offset="0.129" stop-color="#FFBB5B"/>
<stop offset="1" stop-color="#FFBB5B" stop-opacity="0"/>
</linearGradient>
<linearGradient id="paint12_linear_431_1779" x1="13.0782" y1="21.654" x2="13.0782" y2="20.763" gradientUnits="userSpaceOnUse">
<stop offset="0.184" stop-color="#FF6F8C"/>
<stop offset="1" stop-color="#FF7A6A" stop-opacity="0"/>
</linearGradient>
<radialGradient id="paint13_radial_431_1779" cx="0" cy="0" r="1" gradientUnits="userSpaceOnUse" gradientTransform="translate(21.047 9.30227) rotate(113.385) scale(1.88959 1.56632)">
<stop offset="0.377" stop-color="#DD9049"/>
<stop offset="1" stop-color="#F8BF60" stop-opacity="0"/>
</radialGradient>
<radialGradient id="paint14_radial_431_1779" cx="0" cy="0" r="1" gradientUnits="userSpaceOnUse" gradientTransform="translate(3.03496 9.40802) rotate(64.2172) scale(1.53569 0.839982)">
<stop offset="0.196" stop-color="#D7783D"/>
<stop offset="1" stop-color="#D7783D" stop-opacity="0"/>
</radialGradient>
<radialGradient id="paint15_radial_431_1779" cx="0" cy="0" r="1" gradientUnits="userSpaceOnUse" gradientTransform="translate(11.9997 6.62477) rotate(76.0566) scale(0.875394 1.91701)">
<stop offset="0.382" stop-color="#D48C33"/>
<stop offset="1" stop-color="#FEB16A" stop-opacity="0"/>
</radialGradient>
<radialGradient id="paint16_radial_431_1779" cx="0" cy="0" r="1" gradientUnits="userSpaceOnUse" gradientTransform="translate(16.523 17.295) rotate(-51.5819) scale(1.73501 1.11953)">
<stop stop-color="#FF196C"/>
<stop offset="1" stop-color="#FF1F4A"/>
</radialGradient>
<radialGradient id="paint17_radial_431_1779" cx="0" cy="0" r="1" gradientUnits="userSpaceOnUse" gradientTransform="translate(17.7185 16.38) rotate(149.744) scale(1.30242 0.824972)">
<stop offset="0.223" stop-color="#FF5873"/>
<stop offset="1" stop-color="#FF5873" stop-opacity="0"/>
</radialGradient>
<radialGradient id="paint18_radial_431_1779" cx="0" cy="0" r="1" gradientUnits="userSpaceOnUse" gradientTransform="translate(7.35957 17.3412) rotate(-104.281) scale(1.33017 1.27359)">
<stop stop-color="#F6196C"/>
<stop offset="1" stop-color="#E42047"/>
</radialGradient>
<radialGradient id="paint19_radial_431_1779" cx="0" cy="0" r="1" gradientUnits="userSpaceOnUse" gradientTransform="translate(7.91045 16.533) rotate(155.726) scale(0.655624 0.574272)">
<stop stop-color="#FE536F"/>
<stop offset="1" stop-color="#FE536F" stop-opacity="0"/>
</radialGradient>
<radialGradient id="paint20_radial_431_1779" cx="0" cy="0" r="1" gradientUnits="userSpaceOnUse" gradientTransform="translate(3.49154 8.2312) rotate(135.198) scale(2.22965 2.31965)">
<stop offset="0.172" stop-color="#E7C04E"/>
<stop offset="1" stop-color="#D9972A"/>
</radialGradient>
<radialGradient id="paint21_radial_431_1779" cx="0" cy="0" r="1" gradientUnits="userSpaceOnUse" gradientTransform="translate(2.41384 10.1229) rotate(-71.331) scale(1.24469 1.34829)">
<stop offset="0.065" stop-color="#DF8089"/>
<stop offset="1" stop-color="#DF8089" stop-opacity="0"/>
</radialGradient>
<radialGradient id="paint22_radial_431_1779" cx="0" cy="0" r="1" gradientUnits="userSpaceOnUse" gradientTransform="translate(3.57497 8.27925) rotate(141.017) scale(1.05529 0.545346)">
<stop stop-color="#FFDE71"/>
<stop offset="1" stop-color="#FFDE71" stop-opacity="0"/>
</radialGradient>
<radialGradient id="paint23_radial_431_1779" cx="0" cy="0" r="1" gradientUnits="userSpaceOnUse" gradientTransform="translate(3.01172 9.0105) rotate(180) scale(1.40625 1.46154)">
<stop offset="0.488" stop-color="#E1AD3D" stop-opacity="0"/>
<stop offset="1" stop-color="#B9894B"/>
</radialGradient>
<radialGradient id="paint24_radial_431_1779" cx="0" cy="0" r="1" gradientUnits="userSpaceOnUse" gradientTransform="translate(8.02708 7.50948) rotate(136.302) scale(2.18818 2.2742)">
<stop offset="0.172" stop-color="#E7C04E"/>
<stop offset="1" stop-color="#D9972A"/>
</radialGradient>
<radialGradient id="paint25_radial_431_1779" cx="0" cy="0" r="1" gradientUnits="userSpaceOnUse" gradientTransform="translate(8.10906 7.55627) rotate(142.093) scale(1.03968 0.532602)">
<stop stop-color="#FFDE71"/>
<stop offset="1" stop-color="#FFDE71" stop-opacity="0"/>
</radialGradient>
<radialGradient id="paint26_radial_431_1779" cx="0" cy="0" r="1" gradientUnits="userSpaceOnUse" gradientTransform="translate(7.18356 9.32552) rotate(-76.7987) scale(0.974988 1.30035)">
<stop stop-color="#E4A122"/>
<stop offset="1" stop-color="#E4A122" stop-opacity="0"/>
</radialGradient>
<radialGradient id="paint27_radial_431_1779" cx="0" cy="0" r="1" gradientUnits="userSpaceOnUse" gradientTransform="translate(7.54656 8.25902) rotate(180) scale(1.40625)">
<stop offset="0.488" stop-color="#E1AD3D" stop-opacity="0"/>
<stop offset="1" stop-color="#B9894B"/>
</radialGradient>
<radialGradient id="paint28_radial_431_1779" cx="0" cy="0" r="1" gradientUnits="userSpaceOnUse" gradientTransform="translate(17.6015 7.84967) rotate(136.32) scale(1.79863 1.86934)">
<stop offset="0.172" stop-color="#F0C950"/>
<stop offset="1" stop-color="#C8861F"/>
</radialGradient>
<radialGradient id="paint29_radial_431_1779" cx="0" cy="0" r="1" gradientUnits="userSpaceOnUse" gradientTransform="translate(17.754 7.65002) rotate(147.14) scale(1.00446 0.514556)">
<stop offset="0.184" stop-color="#FFDE71"/>
<stop offset="1" stop-color="#FFDE71" stop-opacity="0"/>
</radialGradient>
<radialGradient id="paint30_radial_431_1779" cx="0" cy="0" r="1" gradientUnits="userSpaceOnUse" gradientTransform="translate(12.8425 16.1694) rotate(138.155) scale(2.10794)">
<stop stop-color="#5FBFFF"/>
<stop offset="1" stop-color="#3E94FF"/>
</radialGradient>
<linearGradient id="paint31_linear_431_1779" x1="12.158" y1="6.86475" x2="16.916" y2="12.8647" gradientUnits="userSpaceOnUse">
<stop stop-color="#FFD678"/>
<stop offset="1" stop-color="#FFD678" stop-opacity="0"/>
</linearGradient>
<radialGradient id="paint32_radial_431_1779" cx="0" cy="0" r="1" gradientUnits="userSpaceOnUse" gradientTransform="translate(16.916 12.279) rotate(-34.6679) scale(4.87294 1.30517)">
<stop offset="0.289" stop-color="#FFD175"/>
<stop offset="1" stop-color="#FFD175" stop-opacity="0"/>
</radialGradient>
<radialGradient id="paint33_radial_431_1779" cx="0" cy="0" r="1" gradientUnits="userSpaceOnUse" gradientTransform="translate(13.0783 4.98966) rotate(125.606) scale(2.57641 2.18743)">
<stop offset="0.376" stop-color="#F3D154"/>
<stop offset="1" stop-color="#CC9848"/>
</radialGradient>
<radialGradient id="paint34_radial_431_1779" cx="0" cy="0" r="1" gradientUnits="userSpaceOnUse" gradientTransform="translate(11.7413 7.0845) rotate(-79.3129) scale(1.37442 1.63381)">
<stop stop-color="#E78F5E"/>
<stop offset="1" stop-color="#E78F5E" stop-opacity="0"/>
</radialGradient>
<radialGradient id="paint35_radial_431_1779" cx="0" cy="0" r="1" gradientUnits="userSpaceOnUse" gradientTransform="translate(12.5618 6.18525) rotate(-146.725) scale(2.69124 3.21885)">
<stop offset="0.557" stop-color="#E9C251" stop-opacity="0"/>
<stop offset="1" stop-color="#B49858"/>
</radialGradient>
<radialGradient id="paint36_radial_431_1779" cx="0" cy="0" r="1" gradientUnits="userSpaceOnUse" gradientTransform="translate(13.5465 5.13) rotate(156.06) scale(1.48733 1.14456)">
<stop stop-color="#FFED77"/>
<stop offset="1" stop-color="#FFED77" stop-opacity="0"/>
</radialGradient>
<radialGradient id="paint37_radial_431_1779" cx="0" cy="0" r="1" gradientUnits="userSpaceOnUse" gradientTransform="translate(22.2419 8.23199) rotate(135.198) scale(2.22965 2.31965)">
<stop offset="0.172" stop-color="#F8CB54"/>
<stop offset="1" stop-color="#EAA34B"/>
</radialGradient>
<radialGradient id="paint38_radial_431_1779" cx="0" cy="0" r="1" gradientUnits="userSpaceOnUse" gradientTransform="translate(21.164 10.1227) rotate(-71.3304) scale(1.24469 1.68244)">
<stop offset="0.16" stop-color="#F1907C"/>
<stop offset="1" stop-color="#F1907C" stop-opacity="0"/>
</radialGradient>
<radialGradient id="paint39_radial_431_1779" cx="0" cy="0" r="1" gradientUnits="userSpaceOnUse" gradientTransform="translate(22.3257 8.28) rotate(141.017) scale(1.05529 0.545346)">
<stop stop-color="#FFDE71"/>
<stop offset="1" stop-color="#FFDE71" stop-opacity="0"/>
</radialGradient>
<radialGradient id="paint40_radial_431_1779" cx="0" cy="0" r="1" gradientUnits="userSpaceOnUse" gradientTransform="translate(21.7617 9.0105) rotate(180) scale(1.40625 1.46154)">
<stop offset="0.488" stop-color="#E0A444" stop-opacity="0"/>
<stop offset="1" stop-color="#C6924D"/>
</radialGradient>
</defs>
</svg>
